<?xml version="1.0" standalone="no"?>
<!DOCTYPE svg PUBLIC "-//W3C//DTD SVG 20010904//EN"
 "http://www.w3.org/TR/2001/REC-SVG-20010904/DTD/svg10.dtd">
<svg version="1.0" xmlns="http://www.w3.org/2000/svg"
 width="336.000000pt" height="100.000000pt" viewBox="0 0 336.000000 100.000000"
 preserveAspectRatio="xMidYMid meet">

<g transform="translate(0.000000,100.000000) scale(0.100000,-0.100000)"
fill="#000000" stroke="none">
<path d="M235 915 c-14 -13 -25 -32 -25 -41 0 -12 -5 -14 -17 -9 -49 21 -73
18 -103 -15 -31 -34 -42 -92 -18 -106 8 -5 7 -10 -4 -18 -23 -17 -38 -52 -38
-90 0 -42 40 -80 80 -74 24 4 25 1 25 -35 0 -44 19 -63 71 -73 21 -4 44 0 65
10 l32 16 -7 -38 c-3 -20 -6 -54 -6 -75 l0 -38 -30 16 c-16 8 -41 15 -56 15
-27 0 -124 -47 -124 -61 0 -4 15 -18 32 -31 26 -18 46 -23 93 -23 33 0 68 4
79 9 17 9 18 4 14 -103 -2 -71 0 -110 7 -108 16 6 27 87 21 169 l-5 77 34 -15
c60 -25 96 -18 158 32 36 29 34 39 -13 58 -54 22 -108 20 -147 -4 l-33 -20 0
81 0 81 25 -16 c61 -40 141 2 133 70 -3 30 -1 34 18 34 24 0 64 43 64 67 0 8
-13 27 -29 42 -21 20 -27 32 -20 42 34 54 -18 129 -91 129 -30 0 -40 5 -45 20
-8 24 -54 50 -90 50 -14 0 -37 -11 -50 -25z m94 -11 c20 -14 22 -22 17 -55 -7
-42 6 -52 24 -19 14 27 69 27 98 0 29 -27 29 -74 0 -94 -25 -18 -23 -21 24
-44 60 -30 45 -82 -23 -82 -42 0 -46 -5 -24 -34 20 -27 19 -42 -5 -66 -31 -31
-68 -25 -106 15 -38 41 -44 43 -44 14 0 -52 -49 -80 -103 -60 -31 12 -42 46
-28 84 l10 27 -50 -2 c-55 -3 -69 8 -69 55 0 48 16 67 58 67 l37 0 -32 26
c-39 30 -43 67 -11 101 26 28 59 30 83 3 26 -28 32 -25 39 20 9 58 56 78 105
44z m150 -555 c17 -6 31 -14 31 -17 0 -4 -15 -17 -33 -29 -37 -25 -68 -29
-116 -12 -31 11 -32 12 -14 31 33 37 77 46 132 27z m-203 -40 c21 -17 17 -25
-22 -44 -32 -15 -43 -16 -78 -5 -60 18 -71 29 -46 47 46 32 109 33 146 2z"/>
<path d="M232 737 c-30 -32 -29 -81 3 -112 72 -73 178 28 114 109 -27 35 -86
36 -117 3z m102 -19 c23 -32 20 -54 -11 -77 -57 -46 -125 27 -76 81 23 25 68
23 87 -4z"/>
<path d="M2466 917 c-14 -11 -66 -125 -66 -145 0 -13 45 -31 57 -24 10 8 53
130 53 154 0 21 -24 29 -44 15z"/>
<path d="M2410 698 c0 -2 -3 -50 -7 -108 -8 -126 -5 -212 6 -223 5 -5 20 -7
35 -5 l25 3 4 153 c5 163 0 182 -44 182 -10 0 -19 -1 -19 -2z"/>
<path d="M2917 573 c-65 -135 -77 -141 -57 -25 11 64 10 68 -10 84 -12 10 -26
15 -31 12 -5 -3 -30 -46 -54 -95 -25 -49 -47 -89 -49 -89 -2 0 2 28 10 63 26
108 27 117 14 132 -25 30 -47 18 -53 -27 -3 -24 -15 -81 -26 -128 -17 -76 -18
-87 -5 -108 23 -36 84 -50 84 -20 0 5 12 35 26 66 l26 57 14 -40 c14 -44 46
-75 74 -75 14 0 23 15 35 58 9 31 37 99 62 150 24 50 41 97 38 102 -18 29 -40
3 -98 -117z"/>
<path d="M1074 615 l-38 -55 -11 28 c-13 30 -54 62 -80 62 -9 0 -27 -25 -45
-62 l-29 -63 -1 37 c0 25 -7 44 -22 58 -42 39 -44 33 -38 -114 5 -120 13 -141
54 -148 14 -2 21 7 31 42 16 57 52 137 67 146 8 5 9 -12 5 -62 -5 -55 -3 -75
9 -92 23 -33 51 -28 59 11 4 17 28 67 54 111 l46 78 6 -73 c6 -81 13 -105 35
-113 24 -9 28 14 26 137 -2 70 -5 80 -28 102 -40 37 -57 31 -100 -30z"/>
<path d="M1297 618 c-8 -29 -22 -82 -29 -117 l-12 -63 32 -29 c18 -16 41 -29
51 -29 17 0 51 29 51 44 0 17 70 100 77 92 5 -5 -36 -158 -45 -170 -5 -6 -17
-31 -26 -56 -22 -56 -70 -135 -109 -177 -33 -35 -29 -53 10 -53 38 0 100 71
151 172 51 102 98 279 88 332 -8 40 -40 80 -59 73 -7 -2 -31 -32 -55 -68 -23
-35 -54 -75 -68 -89 l-25 -25 7 40 c4 22 15 63 25 92 17 49 17 52 0 67 -31 28
-46 19 -64 -36z"/>
<path d="M3250 649 c0 -21 -1 -21 -26 -4 -21 14 -31 15 -54 5 -55 -23 -140
-133 -140 -182 0 -60 80 -129 122 -107 10 5 33 30 53 56 l35 46 0 -47 c0 -53
13 -86 35 -86 18 0 27 30 24 88 -1 26 2 82 6 125 7 73 6 80 -16 103 -28 30
-39 31 -39 3z m-20 -59 c0 -6 -17 -37 -37 -68 -21 -31 -42 -66 -48 -77 -11
-20 -65 -34 -65 -17 0 26 33 82 74 125 43 44 76 60 76 37z"/>
<path d="M2000 515 c0 -123 2 -135 19 -145 11 -5 29 -10 40 -10 17 0 21 6 21
34 0 39 77 197 99 204 11 4 13 -11 9 -86 -6 -102 2 -126 43 -120 23 3 24 6 27
87 3 98 -9 136 -50 157 -50 26 -89 15 -115 -31 -18 -32 -23 -36 -23 -17 0 25
-33 62 -55 62 -13 0 -15 -22 -15 -135z"/>
</g>
</svg>
