<?xml version="1.0" standalone="no"?>
<!DOCTYPE svg PUBLIC "-//W3C//DTD SVG 20010904//EN"
 "http://www.w3.org/TR/2001/REC-SVG-20010904/DTD/svg10.dtd">
<svg version="1.0" xmlns="http://www.w3.org/2000/svg"
 width="518.000000pt" height="193.000000pt" viewBox="0 0 518.000000 193.000000"
 preserveAspectRatio="xMidYMid meet">

<g transform="translate(0.000000,193.000000) scale(0.100000,-0.100000)"
fill="#000000" stroke="none">
<path d="M1114 1366 c-12 -9 -25 -27 -28 -42 -5 -20 -11 -24 -24 -18 -46 19
-71 16 -97 -12 -31 -34 -41 -68 -27 -98 8 -19 6 -27 -10 -43 -11 -11 -22 -38
-25 -59 -7 -54 19 -86 70 -86 36 0 38 -1 32 -27 -13 -60 63 -105 131 -76 l34
14 0 -76 c0 -68 -2 -74 -17 -68 -71 30 -93 30 -149 1 -30 -16 -53 -34 -51 -40
5 -18 89 -56 125 -56 18 0 46 7 61 15 l29 14 6 -41 c4 -22 4 -75 1 -117 -5
-63 -4 -73 6 -56 8 12 13 59 13 127 0 60 0 108 2 108 1 0 19 -7 39 -16 23 -9
51 -13 69 -10 31 6 106 60 106 76 0 12 -77 40 -113 40 -18 0 -49 -9 -70 -20
l-37 -20 0 80 c0 44 3 80 8 80 4 0 16 -7 26 -15 31 -23 70 -18 101 12 22 22
26 34 22 60 -5 27 -2 33 11 33 59 0 88 89 37 112 -18 8 -24 16 -19 27 4 9 9
30 12 48 6 46 -41 93 -94 93 -30 0 -43 7 -63 30 -31 37 -85 49 -117 26z m85
-22 c20 -14 22 -23 18 -55 -5 -41 6 -51 22 -20 14 25 42 31 80 15 43 -18 59
-55 37 -89 -9 -14 -21 -25 -26 -25 -23 0 -8 -19 23 -29 73 -24 63 -91 -14 -91
-41 0 -49 -9 -24 -30 37 -31 3 -90 -51 -90 -24 0 -39 9 -63 35 -36 42 -41 43
-41 10 0 -55 -69 -83 -119 -49 -20 15 -23 22 -17 61 l6 45 -35 -6 c-53 -10
-75 6 -75 58 0 54 24 80 66 71 26 -5 27 -4 10 7 -32 22 -56 47 -56 61 0 6 9
27 20 45 24 39 63 43 104 11 l26 -20 0 28 c0 64 56 93 109 57z m174 -563 c19
-19 -40 -60 -85 -61 -39 0 -88 17 -88 32 0 4 15 17 33 29 35 22 118 22 140 0z
m-245 -21 c41 -25 40 -37 -4 -56 -41 -17 -94 -11 -126 16 l-22 17 39 21 c50
27 72 27 113 2z"/>
<path d="M1101 1174 c-41 -52 -17 -118 46 -130 27 -5 37 -1 63 24 37 37 39 74
5 107 -34 35 -86 34 -114 -1z m101 -11 c24 -21 23 -58 -2 -83 -53 -53 -126 13
-90 81 13 24 66 26 92 2z"/>
<path d="M3307 1300 c-35 -73 -33 -104 6 -108 18 -2 27 1 27 11 0 8 9 43 20
77 25 78 25 80 -3 80 -17 0 -28 -13 -50 -60z"/>
<path d="M3287 1133 c-3 -4 -8 -77 -12 -162 -8 -164 -6 -171 42 -171 20 0 21
4 23 128 1 70 2 142 3 159 0 18 -1 35 -4 37 -11 9 -48 16 -52 9z"/>
<path d="M3807 1048 c-24 -51 -50 -108 -58 -125 -8 -18 -17 -33 -21 -33 -10 0
-9 50 1 112 8 52 -1 78 -28 78 -12 0 -32 -28 -65 -96 -26 -53 -50 -94 -52 -91
-4 4 3 43 31 164 5 23 -17 53 -41 53 -9 0 -14 -11 -14 -29 0 -17 -9 -67 -20
-113 -26 -108 -25 -133 2 -152 46 -32 53 -26 104 89 14 32 18 36 21 20 10 -43
35 -83 60 -94 34 -15 49 -2 58 51 4 22 30 86 57 140 40 80 47 102 37 109 -8 5
-17 9 -21 9 -4 0 -27 -42 -51 -92z"/>
<path d="M1967 1078 c-13 -18 -33 -46 -43 -62 l-18 -29 -11 34 c-19 56 -105
89 -105 40 0 -9 -9 -27 -20 -41 -11 -14 -20 -32 -21 -40 -1 -8 -5 5 -10 29 -8
39 -30 70 -53 71 -4 0 -7 -57 -4 -126 3 -110 6 -128 23 -140 28 -21 50 -13 53
18 4 30 68 168 78 168 4 0 4 -34 1 -76 -5 -66 -3 -78 14 -95 24 -24 49 -24 49
0 0 11 16 49 35 85 19 36 33 71 31 78 -1 7 -1 10 1 5 3 -4 13 3 22 15 18 21
18 20 23 -55 5 -76 18 -107 44 -107 11 0 14 22 14 99 0 92 -2 102 -26 130 -33
39 -47 39 -77 -1z"/>
<path d="M2179 1083 c-5 -16 -12 -35 -15 -43 -3 -8 -12 -46 -20 -84 -16 -76
-8 -102 36 -126 33 -18 55 -3 95 60 21 33 41 60 46 60 4 0 10 8 12 18 3 11 5
9 6 -8 3 -64 -75 -262 -141 -357 -28 -40 -55 -73 -61 -73 -6 0 -4 -7 5 -16 59
-59 185 125 244 357 29 117 25 172 -17 198 -20 12 -24 11 -41 -10 -10 -13 -27
-40 -37 -59 -23 -42 -91 -110 -91 -90 0 7 10 49 21 92 17 63 19 81 9 93 -19
23 -39 18 -51 -12z"/>
<path d="M4032 1083 c-43 -21 -132 -137 -132 -172 0 -29 26 -73 56 -96 31 -23
70 -18 94 13 11 15 30 38 40 52 l19 25 1 -42 c0 -49 17 -93 37 -93 13 0 17 24
13 89 -1 18 4 71 11 117 11 77 11 85 -6 104 -24 26 -45 25 -45 -2 l0 -21 -23
21 c-28 26 -24 26 -65 5z m53 -90 c-15 -27 -33 -55 -40 -63 -7 -8 -15 -23 -18
-32 -8 -22 -53 -52 -67 -43 -18 11 -11 40 21 88 35 54 85 97 112 97 17 0 16
-5 -8 -47z"/>
<path d="M2870 963 c0 -71 4 -134 8 -141 5 -7 22 -14 37 -15 27 -2 30 1 37 43
13 76 86 205 105 187 3 -4 6 -51 7 -104 1 -98 1 -98 27 -101 26 -3 26 -2 33
76 3 44 4 88 0 98 -20 61 -48 84 -104 84 -25 0 -33 -7 -51 -42 l-22 -43 -11
33 c-12 33 -30 52 -53 52 -10 0 -13 -32 -13 -127z"/>
</g>
</svg>
