<?xml version="1.0" standalone="no"?>
<!DOCTYPE svg PUBLIC "-//W3C//DTD SVG 20010904//EN"
 "http://www.w3.org/TR/2001/REC-SVG-20010904/DTD/svg10.dtd">
<svg version="1.0" xmlns="http://www.w3.org/2000/svg"
 width="323.000000pt" height="250.000000pt" viewBox="0 0 323.000000 301.000000"
 preserveAspectRatio="xMidYMid meet">

<g transform="translate(0.000000,301.000000) scale(0.100000,-0.100000)"
fill="#000000" stroke="none">
<path d="M1424 2725 c-13 -32 157 -230 227 -266 104 -52 214 0 234 112 9 48
-27 92 -93 113 -146 48 -357 71 -368 41z"/>
<path d="M1925 2419 c-159 -39 -515 -108 -777 -149 -128 -20 -141 -21 -200 -7
-133 33 -260 51 -287 42 -32 -10 -33 -45 -3 -95 27 -45 27 -46 26 -230 -2
-283 -45 -595 -115 -832 -72 -241 -223 -562 -355 -755 -55 -81 -70 -109 -58
-111 34 -8 255 175 353 291 252 301 392 687 473 1308 l23 176 150 36 c324 80
618 117 1040 133 99 3 186 11 193 16 17 15 15 85 -4 117 -18 31 -71 67 -126
87 -67 23 -159 16 -333 -27z"/>
<path d="M1954 2083 c-27 -110 -111 -195 -298 -302 -87 -49 -88 -51 -62 -61
42 -16 112 -10 198 16 32 10 61 -68 66 -177 l4 -97 -28 -6 c-16 -4 -103 -17
-193 -30 -105 -15 -167 -29 -172 -37 -24 -39 35 -101 117 -125 44 -12 76 -15
143 -9 47 3 97 9 110 12 l24 6 -7 -124 c-4 -68 -10 -126 -12 -128 -3 -3 -71
-13 -152 -23 -154 -19 -175 -28 -165 -69 10 -39 58 -77 119 -95 53 -16 74 -16
209 -5 153 12 512 56 575 70 33 7 35 10 34 44 -3 85 -73 130 -204 131 -47 1
-107 -3 -133 -8 l-48 -8 6 88 c10 152 10 152 53 158 159 24 363 59 389 67 17
5 34 16 37 24 7 20 -12 80 -32 98 -55 50 -192 64 -331 33 -41 -9 -76 -14 -79
-12 -2 3 5 47 16 98 l21 93 -20 21 c-11 12 -42 30 -67 39 -26 10 -51 21 -56
26 -5 4 25 17 65 29 237 68 269 80 269 101 0 45 -89 103 -237 155 -123 43
-150 44 -159 7z"/>
<path d="M1205 1908 c-11 -6 -48 -37 -81 -68 -34 -31 -82 -67 -108 -79 -25
-13 -46 -29 -46 -36 0 -30 24 -65 53 -75 44 -15 66 -12 125 15 31 14 52 20 52
13 0 -6 -16 -44 -36 -83 -45 -92 -121 -187 -159 -200 -48 -16 -55 -24 -55 -61
0 -48 40 -89 78 -80 77 19 122 19 143 0 31 -28 21 -114 -27 -238 l-39 -99
-115 -1 c-69 -2 -131 -8 -155 -17 -36 -12 -40 -18 -43 -51 -5 -56 18 -66 132
-60 65 3 95 1 100 -7 10 -15 -103 -165 -226 -301 -52 -58 -102 -111 -111 -119
-37 -30 -4 -42 50 -19 47 20 165 90 218 129 50 37 175 161 212 211 l20 27 164
-91 c90 -49 288 -160 439 -246 l275 -157 65 1 c101 1 298 49 635 155 166 53
205 70 205 93 0 10 -40 15 -177 20 -375 15 -627 40 -768 77 -178 46 -514 166
-707 252 l-57 26 81 168 c44 92 95 184 113 203 28 30 31 39 24 65 -12 44 -71
108 -117 129 -38 17 -42 17 -117 -3 -43 -12 -80 -19 -83 -17 -2 3 23 36 58 73
34 37 82 95 106 128 85 114 94 123 144 146 50 23 58 35 40 68 -15 28 -103 81
-171 102 -69 22 -105 23 -134 7z"/>
</g>
</svg>
